HIERARCHY
ROOT Hips
{
	OFFSET 0.00000 0.00000 0.00000
	CHANNELS 6 Xposition Yposition Zposition Yrotation Zrotation Xrotation 
	JOINT Lumbar
	{
		OFFSET 0 0 0
		CHANNELS 3 Zrotation Xrotation Yrotation
		JOINT Neck
		{
			OFFSET 0.00 0.2701 0.00
			CHANNELS 3 Zrotation Xrotation Yrotation
			End Site
			{
				OFFSET 0.00 0.1379 0.00
			}
		}
		JOINT RightShoulder
		{
			OFFSET 0.0119 0.2289 0.1181
			CHANNELS 3 Zrotation Xrotation Yrotation
			JOINT RightElbow
			{
				OFFSET 0.00 -0.1475 0.00
				CHANNELS 2 Zrotation Yrotation
				JOINT RightWrist
				{
					OFFSET 0.00 -0.1605 0.00
					CHANNELS 2 Zrotation Xrotation
					End Site
					{
						OFFSET 0.0040 -0.1068 0.0006
					}
				}
			}
		}
		JOINT LeftShoulder
		{
			OFFSET 0.0119 0.2289 -0.1181
			CHANNELS 3 Zrotation Xrotation Yrotation
			JOINT LeftElbow
			{
				OFFSET 0.00 -0.1475 0.00
				CHANNELS 2 Zrotation Yrotation
				JOINT LeftWrist
				{
					OFFSET 0.00 -0.1605 0.00
					CHANNELS 2 Zrotation Xrotation
					End Site
					{
						OFFSET 0.0040 -0.1068 -0.0006
					}
				}
			}
		}
	}
	JOINT RightHip
	{
		OFFSET 0.0316 -0.0424 0.0458
		CHANNELS 3 Zrotation Xrotation Yrotation
		JOINT RightKnee
		{
			OFFSET 0.00 -0.2438 0.00
			CHANNELS 1 Zrotation
			JOINT RightAnkle
			{
				OFFSET 0.00 -0.2449 0.00
				CHANNELS 3 Zrotation Xrotation Yrotation
				End Site
				{
					OFFSET 0.1237 -0.0542 0.0051
				}
			}
		}
	}
	JOINT LeftHip
	{
		OFFSET 0.0316 -0.0424 -0.0458
		CHANNELS 3 Zrotation Xrotation Yrotation
		JOINT LeftKnee
		{
			OFFSET 0.00 -0.2438 0.00
			CHANNELS 1 Zrotation
			JOINT LeftAnkle
			{
				OFFSET 0.00 -0.2449 0.00
				CHANNELS 3 Zrotation Xrotation Yrotation
				End Site
				{
					OFFSET 0.1237 -0.0542 -0.0051
				}
			}
		}
	}
}
MOTION
Frames: 11
Frame Time: 0.02
0.35121 -0.25019 0.04377 -178.35789 16.81895 -4.63931 23.45905 5.65452 -9.19557 -32.92053 -5.19657 -2.1112 109.994 -29.36316 47.33523 109.53661 86.30343 -7.26561 -6.62434 111.62546 37.0736 -42.91481 109.56598 -79.28642 -0.06694 6.19549 64.14141 -1.72951 -25.96853 -0.53561 -39.85619 15.87569 6.08601 59.49775 4.42323 8.15363 -0.56344 -46.80672 -16.37619 -8.29756
0.35112 -0.25004 0.04389 -178.29273 16.7802 -4.67855 23.44991 5.6788 -9.23426 -32.95078 -5.16094 -2.11121 109.97227 -29.40371 47.35786 109.4873 85.93927 -6.8203 -6.69004 111.78908 37.15783 -43.09106 109.48987 -79.15944 0.03779 6.22651 63.76689 -1.74363 -25.66461 -0.53722 -39.8759 15.79895 6.01874 59.76887 4.20797 8.52572 -0.5625 -46.76501 -16.36131 -8.26119
0.351 -0.24984 0.04405 -178.21325 16.77066 -4.72438 23.40684 5.71436 -9.27118 -32.97218 -5.1359 -2.11121 109.90616 -29.40748 47.38302 109.40605 85.51707 -6.3479 -6.77092 111.90749 37.2414 -43.27002 109.41442 -79.0249 0.12765 6.26365 63.43562 -1.72556 -25.62699 -0.53833 -39.88637 15.75259 5.97452 59.96386 3.93997 8.9102 -0.56156 -46.73552 -16.32627 -8.22822
0.35089 -0.24967 0.04419 -178.14165 16.74658 -4.76644 23.38144 5.74313 -9.30881 -33.00117 -5.10578 -2.11122 109.85806 -29.43058 47.40621 109.34363 85.11972 -5.88644 -6.8434 112.04845 37.32585 -43.44549 109.34027 -78.89437 0.22762 6.29709 63.09371 -1.71989 -25.46289 -0.53966 -39.90744 15.68953 5.9195 60.19112 3.69914 9.27721 -0.56064 -46.70199 -16.29036 -8.19146
0.3508 -0.24947 0.04435 -178.06385 16.72655 -4.81225 23.34683 5.77894 -9.34738 -33.01575 -5.07633 -2.11123 109.81939 -29.44382 47.43299 109.26391 84.73008 -5.42964 -6.92248 112.18517 37.40834 -43.63251 109.25847 -78.76448 0.31272 6.33497 62.71489 -1.72184 -25.31625 -0.54106 -39.90263 15.63892 5.86521 60.42908 3.44222 9.6826 -0.55962 -46.65858 -16.2936 -8.16042
0.35067 -0.24931 0.04447 -177.99551 16.70564 -4.85167 23.32301 5.80284 -9.38315 -33.05773 -5.0481 -2.11123 109.75113 -29.46866 47.45276 109.21229 84.30902 -4.95666 -6.99114 112.31782 37.49472 -43.79518 109.19337 -78.63036 0.42548 6.36476 62.4227 -1.70096 -25.19895 -0.54218 -39.94851 15.56883 5.81467 60.62631 3.20681 10.01559 -0.55881 -46.63985 -16.21269 -8.11993
0.3504 -0.24926 0.04444 -177.95956 16.67337 -4.87113 23.34033 5.79013 -9.41395 -33.18072 -5.02181 -2.11124 109.6029 -29.53106 47.45373 109.2459 83.8298 -4.45251 -7.02949 112.4572 37.58994 -43.89225 109.17089 -78.48612 0.61825 6.37171 62.36012 -1.62479 -25.09369 -0.54263 -40.14373 15.44573 5.77452 60.73002 3.04974 10.14365 -0.5586 -46.68812 -15.89247 -8.04985
0.3501 -0.24924 0.04436 -177.9333 16.63961 -4.88394 23.3692 5.76524 -9.44144 -33.3309 -4.9963 -2.11125 109.42783 -29.60661 47.44737 109.30868 83.31898 -3.93262 -7.05646 112.59233 37.68923 -43.96415 109.1658 -78.33797 0.83907 6.37012 62.38294 -1.52701 -25.01023 -0.54283 -40.38874 15.30058 5.73647 60.79523 2.9156 10.20029 -0.55861 -46.76092 -15.49072 -7.97104
0.34982 -0.2492 0.04431 -177.90078 16.60794 -4.90023 23.39071 5.74657 -9.46895 -33.46655 -4.96971 -2.11126 109.27102 -29.67845 47.44353 109.35822 82.8123 -3.4148 -7.08717 112.7243 37.78812 -44.04569 109.15517 -78.19075 1.04764 6.3716 62.3658 -1.43945 -24.92002 -0.54315 -40.60648 15.16009 5.69391 60.87765 2.76726 10.29272 -0.55851 -46.82192 -15.13448 -7.89866
0.34952 -0.24916 0.04425 -177.87523 16.57161 -4.91501 23.41967 5.72539 -9.50295 -33.61129 -4.94635 -2.11127 109.08761 -29.74031 47.44304 109.40706 82.34387 -2.91472 -7.12429 112.87595 37.88153 -44.13453 109.13506 -78.04496 1.25522 6.37642 62.35483 -1.34907 -24.82563 -0.54341 -40.84419 15.04293 5.66712 60.95838 2.6324 10.37181 -0.55843 -46.88638 -14.74205 -7.81647
0.34925 -0.24913 0.04419 -177.83809 16.54385 -4.93103 23.43667 5.70638 -9.52229 -33.74341 -4.91655 -2.11128 108.95317 -29.82552 47.434 109.46413 81.79263 -2.37777 -7.14536 112.98655 37.9865 -44.20267 109.13823 -77.89779 1.46967 6.37255 62.35099 -1.25982 -24.74174 -0.54374 -41.05136 14.87198 5.60771 61.03478 2.47634 10.46094 -0.55837 -46.94889 -14.40556 -7.75196
